<svg id="Capa_1" data-name="Capa 1" xmlns="http://www.w3.org/2000/svg" viewBox="0 0 350 150"><defs><style>.cls-1{fill:#0086f8;}.cls-2{fill:#ff4131;}.cls-3{fill:#ffbd00;}.cls-4{fill:#00aa4b;}</style></defs><title>google-logo</title><path class="cls-1" d="M43.41,60.14H79.88a24.25,24.25,0,0,1,.52,3,29.73,29.73,0,0,1,.21,3.53,41.26,41.26,0,0,1-2.18,13.5,31.27,31.27,0,0,1-6.86,11.33,34.52,34.52,0,0,1-11.95,8.21,40.91,40.91,0,0,1-15.9,2.91,40.21,40.21,0,0,1-15.27-2.91A38,38,0,0,1,16,91.62,38.84,38.84,0,0,1,7.57,79.31,38.23,38.23,0,0,1,4.45,63.78,38.23,38.23,0,0,1,7.57,48.25,39,39,0,0,1,16,35.93a38.16,38.16,0,0,1,12.47-8.1,40.21,40.21,0,0,1,15.27-2.91A39.89,39.89,0,0,1,59.88,28a36.33,36.33,0,0,1,12.21,8.62l-9.66,9.46a25.72,25.72,0,0,0-8.11-5.87,25.6,25.6,0,0,0-10.7-2A25.92,25.92,0,0,0,34,40a24,24,0,0,0-8,5.14,24.5,24.5,0,0,0-5.46,8,26.57,26.57,0,0,0-2,10.55,26.48,26.48,0,0,0,2,10.54A24.11,24.11,0,0,0,26,82.38a24.84,24.84,0,0,0,8.05,5.14,26.23,26.23,0,0,0,9.77,1.82,25.83,25.83,0,0,0,10-1.72,23.44,23.44,0,0,0,7-4.41,16.83,16.83,0,0,0,3.58-4.73,27.1,27.1,0,0,0,2.34-6.39H43.41Z"/><path class="cls-2" d="M114.17,48.4a28.34,28.34,0,0,1,10.86,2,25.17,25.17,0,0,1,14.13,14.18,30.47,30.47,0,0,1,0,21.82A25.17,25.17,0,0,1,125,100.61a30.06,30.06,0,0,1-21.72,0A25.17,25.17,0,0,1,89.18,86.43a30.33,30.33,0,0,1,0-21.82,25.17,25.17,0,0,1,14.13-14.18A28.34,28.34,0,0,1,114.17,48.4Zm0,41.67a13.31,13.31,0,0,0,5-1,12.84,12.84,0,0,0,4.31-2.86,13.57,13.57,0,0,0,3-4.57,17.78,17.78,0,0,0,0-12.26,13.57,13.57,0,0,0-3-4.57A12.84,12.84,0,0,0,119.21,62a13.31,13.31,0,0,0-5-1,13.16,13.16,0,0,0-5.09,1,12.84,12.84,0,0,0-4.26,2.86,13.42,13.42,0,0,0-3,4.57,17.78,17.78,0,0,0,0,12.26,13.42,13.42,0,0,0,3,4.57,12.84,12.84,0,0,0,4.26,2.86A13.16,13.16,0,0,0,114.17,90.07Z"/><path class="cls-3" d="M174,48.4a28.34,28.34,0,0,1,10.86,2A25.17,25.17,0,0,1,199,64.61a30.33,30.33,0,0,1,0,21.82,25.17,25.17,0,0,1-14.13,14.18,30,30,0,0,1-21.71,0A25.17,25.17,0,0,1,149,86.43a30.33,30.33,0,0,1,0-21.82,25.17,25.17,0,0,1,14.13-14.18A28.33,28.33,0,0,1,174,48.4Zm0,41.67a13.27,13.27,0,0,0,5-1,12.74,12.74,0,0,0,4.31-2.86,13.59,13.59,0,0,0,3-4.57,17.78,17.78,0,0,0,0-12.26,13.59,13.59,0,0,0-3-4.57A12.74,12.74,0,0,0,179.05,62a13.45,13.45,0,0,0-10.13,0,13,13,0,0,0-4.26,2.86,13.72,13.72,0,0,0-3,4.57,17.78,17.78,0,0,0,0,12.26,13.72,13.72,0,0,0,3,4.57,13,13,0,0,0,4.26,2.86A13.19,13.19,0,0,0,174,90.07Z"/><path class="cls-1" d="M233.24,125.08a30.54,30.54,0,0,1-9.62-1.4A27.52,27.52,0,0,1,216.3,120a24.07,24.07,0,0,1-5.19-4.94,19.32,19.32,0,0,1-3-5.4l13-5.19a12.34,12.34,0,0,0,4.78,6.28,14,14,0,0,0,17.56-1.94q3.74-4.18,3.74-11.51V93.81h-.83A16.74,16.74,0,0,1,240,99.05a20.44,20.44,0,0,1-9.19,1.92A22.25,22.25,0,0,1,222,99.12a23.27,23.27,0,0,1-7.63-5.29,28,28,0,0,1,0-38.28,23.3,23.3,0,0,1,7.63-5.3,22.42,22.42,0,0,1,8.89-1.85A20.58,20.58,0,0,1,240,50.32a16.77,16.77,0,0,1,6.29,5.25h.83V50.06h13V97.34a32,32,0,0,1-2,11.58,25.14,25.14,0,0,1-5.5,8.73,24.08,24.08,0,0,1-8.47,5.51A30,30,0,0,1,233.24,125.08Zm.52-36.37a14,14,0,0,0,4.93-.91A12.5,12.5,0,0,0,243,85.09a13.57,13.57,0,0,0,3-4.38,14.78,14.78,0,0,0,1.14-6,15.1,15.1,0,0,0-1.14-6,13.42,13.42,0,0,0-3-4.44,12.47,12.47,0,0,0-4.31-2.7,14,14,0,0,0-4.93-.92,13.55,13.55,0,0,0-4.89.92,12.43,12.43,0,0,0-4.26,2.75,14.27,14.27,0,0,0-3,4.44,16.2,16.2,0,0,0,0,11.94,13.55,13.55,0,0,0,3,4.38,12.77,12.77,0,0,0,4.26,2.71A13.54,13.54,0,0,0,233.76,88.71Z"/><path class="cls-4" d="M271.78,101V26.58h13.61V101Z"/><path class="cls-2" d="M344.72,88.71a28.55,28.55,0,0,1-9.51,10.08,26.45,26.45,0,0,1-14.6,3.85,28,28,0,0,1-10.75-2,25.63,25.63,0,0,1-14.23-14.23,28.34,28.34,0,0,1-2-10.86,28,28,0,0,1,2-10.44,26.36,26.36,0,0,1,13.87-14.5,25.68,25.68,0,0,1,10.65-2.18,27.71,27.71,0,0,1,10.91,2A22.15,22.15,0,0,1,339,56a24.11,24.11,0,0,1,4.89,8.47,32.88,32.88,0,0,1,1.66,10.59v1.25a7,7,0,0,0-.1,1.14,5.83,5.83,0,0,0-.11,1.15H307A14.35,14.35,0,0,0,308.72,84a13,13,0,0,0,3.22,3.74,12.53,12.53,0,0,0,4.21,2.18,16.38,16.38,0,0,0,4.67.67,13.23,13.23,0,0,0,7.74-2.12,15.4,15.4,0,0,0,4.83-5.36ZM332.35,69a8.59,8.59,0,0,0-.88-3,10.66,10.66,0,0,0-2.28-3.12,12.26,12.26,0,0,0-3.74-2.39,13.94,13.94,0,0,0-5.36-.93A12.46,12.46,0,0,0,312.41,62a13.17,13.17,0,0,0-4.68,7Z"/></svg>